<svg xmlns="http://www.w3.org/2000/svg" xmlns:xlink="http://www.w3.org/1999/xlink" width="500" zoomAndPan="magnify" viewBox="0 0 375 374.999991" height="500" preserveAspectRatio="xMidYMid meet" version="1.0"><defs><clipPath id="14c32b2dc9"><path d="M 22.71875 21.816406 L 351.96875 21.816406 L 351.96875 353.316406 L 22.71875 353.316406 Z M 22.71875 21.816406 " clip-rule="nonzero"/></clipPath></defs><g clip-path="url(#14c32b2dc9)"><path fill="#ffffff" d="M 304.226562 70.097656 C 273.25 39.089844 232.058594 21.980469 188.167969 21.980469 C 97.734375 21.980469 24.128906 95.570312 24.09375 186.039062 C 24.09375 214.949219 31.640625 243.191406 46 268.058594 L 22.71875 353.074219 L 109.699219 330.253906 C 133.667969 343.335938 160.648438 350.210938 188.101562 350.226562 L 188.167969 350.226562 C 278.585938 350.226562 352.210938 276.621094 352.226562 186.167969 C 352.226562 142.328125 335.199219 101.121094 304.207031 70.097656 Z M 188.167969 322.527344 L 188.121094 322.527344 C 163.660156 322.527344 139.644531 315.945312 118.703125 303.519531 L 113.726562 300.554688 L 62.109375 314.09375 L 75.878906 263.769531 L 72.636719 258.613281 C 58.984375 236.90625 51.777344 211.808594 51.796875 186.039062 C 51.828125 110.863281 113.007812 49.683594 188.21875 49.683594 C 224.644531 49.683594 258.875 63.890625 284.628906 89.675781 C 310.378906 115.445312 324.542969 149.710938 324.523438 186.152344 C 324.492188 261.347656 263.3125 322.527344 188.152344 322.527344 Z M 262.96875 220.402344 C 258.875 218.355469 238.722656 208.433594 234.957031 207.074219 C 231.191406 205.699219 228.476562 205.03125 225.742188 209.121094 C 223.007812 213.230469 215.148438 222.464844 212.757812 225.199219 C 210.367188 227.933594 207.976562 228.277344 203.867188 226.214844 C 199.777344 224.167969 186.5625 219.828125 170.898438 205.863281 C 158.714844 194.992188 150.480469 181.570312 148.089844 177.460938 C 145.703125 173.351562 147.847656 171.140625 149.890625 169.09375 C 151.726562 167.261719 153.984375 164.296875 156.046875 161.90625 C 158.09375 159.515625 158.78125 157.796875 160.140625 155.0625 C 161.515625 152.332031 160.828125 149.941406 159.796875 147.878906 C 158.765625 145.832031 150.578125 125.644531 147.160156 117.441406 C 143.835938 109.453125 140.445312 110.535156 137.941406 110.402344 C 135.550781 110.289062 132.816406 110.257812 130.082031 110.257812 C 127.347656 110.257812 122.914062 111.269531 119.148438 115.378906 C 115.382812 119.488281 104.804688 129.410156 104.804688 149.578125 C 104.804688 169.75 119.492188 189.246094 121.554688 192 C 123.601562 194.730469 150.464844 236.136719 191.589844 253.898438 C 201.363281 258.121094 209.007812 260.644531 214.96875 262.542969 C 224.792969 265.667969 233.730469 265.226562 240.785156 264.164062 C 248.660156 262.984375 265.03125 254.242188 268.453125 244.664062 C 271.875 235.085938 271.875 226.886719 270.84375 225.167969 C 269.8125 223.449219 267.078125 222.433594 262.984375 220.371094 Z M 262.96875 220.402344 " fill-opacity="1" fill-rule="evenodd"/></g></svg>